<?xml version="1.0" encoding="UTF-8" standalone="no"?>
<svg
   xmlns:ooo="http://xml.openoffice.org/svg/export"
   xmlns:dc="http://purl.org/dc/elements/1.1/"
   xmlns:cc="http://creativecommons.org/ns#"
   xmlns:rdf="http://www.w3.org/1999/02/22-rdf-syntax-ns#"
   xmlns:svg="http://www.w3.org/2000/svg"
   xmlns="http://www.w3.org/2000/svg"
   xmlns:sodipodi="http://sodipodi.sourceforge.net/DTD/sodipodi-0.dtd"
   xmlns:inkscape="http://www.inkscape.org/namespaces/inkscape"
   version="1.2"
   viewBox="0 0 13000 13000"
   clip-path="url(#presentation_clip_path)"
   xml:space="preserve"
   id="svg2"
   inkscape:version="0.91 r"
   sodipodi:docname="schema.svg"
   style="fill-rule:evenodd;stroke-width:28.22200012;stroke-linejoin:round"
   width="13000"
   height="13000"
   inkscape:export-filename="/home/mholmes/WorkData/ise/ise-tei-pilot/working/images/schema16.png"
   inkscape:export-xdpi="0.11076923"
   inkscape:export-ydpi="0.11076923"><metadata
     id="metadata74"><rdf:RDF><cc:Work
         rdf:about=""><dc:format>image/svg+xml</dc:format><dc:type
           rdf:resource="http://purl.org/dc/dcmitype/StillImage" /><dc:title></dc:title></cc:Work></rdf:RDF></metadata><sodipodi:namedview
     pagecolor="#ffffff"
     bordercolor="#666666"
     borderopacity="1"
     objecttolerance="10"
     gridtolerance="10"
     guidetolerance="10"
     inkscape:pageopacity="0"
     inkscape:pageshadow="2"
     inkscape:window-width="1252"
     inkscape:window-height="963"
     id="namedview72"
     showgrid="false"
     fit-margin-top="1"
     fit-margin-left="1"
     fit-margin-right="1"
     fit-margin-bottom="1"
     units="cm"
     inkscape:zoom="0.028032174"
     inkscape:cx="5778.569"
     inkscape:cy="974.33795"
     inkscape:window-x="2428"
     inkscape:window-y="177"
     inkscape:window-maximized="0"
     inkscape:current-layer="svg2" /><defs
     class="ClipPathGroup"
     id="defs4"><clipPath
       id="presentation_clip_path"
       clipPathUnits="userSpaceOnUse"><rect
         x="0"
         y="0"
         width="21000"
         height="29700"
         id="rect7" /></clipPath></defs><defs
     class="TextShapeIndex"
     id="defs9"><g
       ooo:slide="id1"
       ooo:id-list="id3 id4"
       id="g11" /></defs><defs
     class="EmbeddedBulletChars"
     id="defs13"><g
       id="bullet-char-template(57356)"
       transform="scale(4.8828125e-4,-4.8828125e-4)"><path
         d="M 580,1141 1163,571 580,0 -4,571 580,1141 Z"
         id="path16"
         inkscape:connector-curvature="0" /></g><g
       id="bullet-char-template(57354)"
       transform="scale(4.8828125e-4,-4.8828125e-4)"><path
         d="m 8,1128 1129,0 L 1137,0 8,0 8,1128 Z"
         id="path19"
         inkscape:connector-curvature="0" /></g><g
       id="bullet-char-template(10146)"
       transform="scale(4.8828125e-4,-4.8828125e-4)"><path
         d="M 174,0 602,739 174,1481 1456,739 174,0 Z m 1184,739 -1049,607 350,-607 699,0 z"
         id="path22"
         inkscape:connector-curvature="0" /></g><g
       id="bullet-char-template(10132)"
       transform="scale(4.8828125e-4,-4.8828125e-4)"><path
         d="M 2015,739 1276,0 717,0 l 543,543 -1086,0 0,393 1086,0 -543,545 557,0 741,-742 z"
         id="path25"
         inkscape:connector-curvature="0" /></g><g
       id="bullet-char-template(10007)"
       transform="scale(4.8828125e-4,-4.8828125e-4)"><path
         d="m 0,-2 c -7,16 -16,29 -25,39 l 381,530 c -94,256 -141,385 -141,387 0,25 13,38 40,38 9,0 21,-2 34,-5 21,4 42,12 65,25 l 27,-13 111,-251 280,301 64,-25 24,25 c 21,-10 41,-24 62,-43 C 886,937 835,863 770,784 769,783 710,716 594,584 L 774,223 c 0,-27 -21,-55 -63,-84 l 16,-20 C 717,90 699,76 672,76 641,76 570,178 457,381 L 164,-76 c -22,-34 -53,-51 -92,-51 -42,0 -63,17 -64,51 -7,9 -10,24 -10,44 0,9 1,19 2,30 z"
         id="path28"
         inkscape:connector-curvature="0" /></g><g
       id="bullet-char-template(10004)"
       transform="scale(4.8828125e-4,-4.8828125e-4)"><path
         d="M 285,-33 C 182,-33 111,30 74,156 52,228 41,333 41,471 c 0,78 14,145 41,201 34,71 87,106 158,106 53,0 88,-31 106,-94 l 23,-176 c 8,-64 28,-97 59,-98 l 735,706 c 11,11 33,17 66,17 42,0 63,-15 63,-46 l 0,-122 c 0,-36 -10,-64 -30,-84 L 442,47 C 390,-6 338,-33 285,-33 Z"
         id="path31"
         inkscape:connector-curvature="0" /></g><g
       id="bullet-char-template(9679)"
       transform="scale(4.8828125e-4,-4.8828125e-4)"><path
         d="M 813,0 C 632,0 489,54 383,161 276,268 223,411 223,592 c 0,181 53,324 160,431 106,107 249,161 430,161 179,0 323,-54 432,-161 108,-107 162,-251 162,-431 0,-180 -54,-324 -162,-431 C 1136,54 992,0 813,0 Z"
         id="path34"
         inkscape:connector-curvature="0" /></g><g
       id="bullet-char-template(8226)"
       transform="scale(4.8828125e-4,-4.8828125e-4)"><path
         d="m 346,457 c -73,0 -137,26 -191,78 -54,51 -81,114 -81,188 0,73 27,136 81,188 54,52 118,78 191,78 73,0 134,-26 185,-79 51,-51 77,-114 77,-187 0,-75 -25,-137 -76,-188 -50,-52 -112,-78 -186,-78 z"
         id="path37"
         inkscape:connector-curvature="0" /></g><g
       id="bullet-char-template(8211)"
       transform="scale(4.8828125e-4,-4.8828125e-4)"><path
         d="m -4,459 1139,0 0,147 -1139,0 0,-147 z"
         id="path40"
         inkscape:connector-curvature="0" /></g></defs><defs
     class="TextEmbeddedBitmaps"
     id="defs42" /><g
     id="g44"
     transform="translate(149.99956,-1150.0001)"><g
       id="id2"
       class="Master_Slide"><g
         id="bg-id2"
         class="Background" /><g
         id="bo-id2"
         class="BackgroundObjects" /></g></g><g
     id="g4453"
     transform="translate(350.00044,-650.48524)"><g
       transform="translate(149.99956,150.98524)"
       id="g49"
       class="SlideGroup"><g
         id="g51"><g
           clip-path="url(#presentation_clip_path)"
           class="Slide"
           id="id1"><g
             id="g54"
             class="Page"><g
               id="g56"
               class="Group"><g
                 id="g58"
                 class="com.sun.star.drawing.PolyPolygonShape"><g
                   id="id3"><path
                     style="fill:#ffffff;stroke:none"
                     inkscape:connector-curvature="0"
                     id="path61"
                     d="m 1000,13000 0,-12000 6667,0 3333,3333 0,8667 -10000,0 z" /><path
                     style="fill:none;stroke:#000000;stroke-width:300;stroke-linejoin:round"
                     inkscape:connector-curvature="0"
                     id="path63"
                     d="m 1000,13000 0,-12000 6667,0 3333,3333 0,8667 -10000,0 z" /></g></g><g
                 id="g65"
                 class="com.sun.star.drawing.CustomShape"><g
                   id="id4"><path
                     style="fill:#b2b2b2;stroke:none"
                     inkscape:connector-curvature="0"
                     id="path68"
                     d="m 7666,999 3334,3334 -3334,0 0,-3334 0,0 z m 0,0 0,0 z m 3334,3334 0,0 z" /><path
                     style="fill:none;stroke:#000000;stroke-width:300;stroke-linejoin:round"
                     inkscape:connector-curvature="0"
                     id="path70"
                     d="m 7666,999 3334,3334 -3334,0 0,-3334 0,0 z" /></g></g></g></g></g></g></g><circle
       r="1.5"
       cy="5810.7412"
       cx="6563.8862"
       style="fill:#000000;stroke:none"
       id="path4344" /><circle
       r="1.5"
       cy="5668.0479"
       cx="4138.1021"
       style="fill:#000000;stroke:none"
       id="path4346" /><circle
       r="1.5"
       cy="5882.0879"
       cx="6991.9658"
       style="fill:#000000;stroke:none"
       id="path4350" /><g
       transform="matrix(1.2882177,0,0,1.2882177,-579.47516,-2096.6745)"
       id="g4443"><rect
         style="opacity:0.98000004;fill:#3b75d5;fill-opacity:1;fill-rule:nonzero;stroke:#ff0000;stroke-width:2;stroke-linecap:round;stroke-linejoin:round;stroke-miterlimit:4;stroke-dasharray:none;stroke-dashoffset:0;stroke-opacity:1"
         id="rect4340"
         width="1783.6648"
         height="1712.3181"
         x="2259.0908"
         y="5921.8892"
         ry="0" /><path
         style="fill:#b2b2b2;fill-opacity:1;fill-rule:evenodd;stroke:#b2b2b2;stroke-width:340;stroke-linecap:butt;stroke-linejoin:miter;stroke-miterlimit:4;stroke-dasharray:none;stroke-opacity:1"
         d="m 4036.1224,6778.048 2354.4374,0"
         id="path4352"
         inkscape:connector-curvature="0" /><path
         style="fill:#b2b2b2;fill-opacity:1;fill-rule:evenodd;stroke:#b2b2b2;stroke-width:321.6078186;stroke-linecap:butt;stroke-linejoin:miter;stroke-miterlimit:4;stroke-dasharray:none;stroke-opacity:1"
         d="m 5221.2811,6845.2665 0,4245.1225"
         id="path4352-3"
         inkscape:connector-curvature="0" /><path
         style="fill:#b2b2b2;fill-opacity:1;fill-rule:evenodd;stroke:#b2b2b2;stroke-width:340;stroke-linecap:butt;stroke-linejoin:miter;stroke-miterlimit:4;stroke-dasharray:none;stroke-opacity:1"
         d="m 5249.0148,8928.1544 1141.545,0"
         id="path4352-38"
         inkscape:connector-curvature="0" /><path
         style="fill:#b2b2b2;fill-opacity:1;fill-rule:evenodd;stroke:#b2b2b2;stroke-width:340;stroke-linecap:butt;stroke-linejoin:miter;stroke-miterlimit:4;stroke-dasharray:none;stroke-opacity:1"
         d="m 5249.0148,10912.023 1141.545,0"
         id="path4352-38-6"
         inkscape:connector-curvature="0" /><rect
         style="opacity:0.98000004;fill:#3b75d5;fill-opacity:1;fill-rule:nonzero;stroke:#ff0000;stroke-width:1.36728919;stroke-linecap:round;stroke-linejoin:round;stroke-miterlimit:4;stroke-dasharray:none;stroke-dashoffset:0;stroke-opacity:1"
         id="rect4340-7"
         width="1219.3928"
         height="1170.6171"
         x="6372.6021"
         y="5776.1616"
         ry="0" /><rect
         style="opacity:0.98000004;fill:#3b75d5;fill-opacity:1;fill-rule:nonzero;stroke:#ff0000;stroke-width:1.36728919;stroke-linecap:round;stroke-linejoin:round;stroke-miterlimit:4;stroke-dasharray:none;stroke-dashoffset:0;stroke-opacity:1"
         id="rect4340-7-0"
         width="1219.3928"
         height="1170.6171"
         x="6390.1938"
         y="7926.5786"
         ry="0" /><rect
         style="opacity:0.98000004;fill:#3b75d5;fill-opacity:1;fill-rule:nonzero;stroke:#ff0000;stroke-width:1.36728919;stroke-linecap:round;stroke-linejoin:round;stroke-miterlimit:4;stroke-dasharray:none;stroke-dashoffset:0;stroke-opacity:1"
         id="rect4340-7-4"
         width="1219.3928"
         height="1170.6171"
         x="6390.1938"
         y="9906.7275"
         ry="0" /></g></g></svg>